<svg width="31" height="28" viewBox="0 0 31 28" fill="none" xmlns="http://www.w3.org/2000/svg">
<path d="M15.4445 6.19531C10.5806 6.19531 6.62657 9.6582 6.61988 13.918C6.61988 15.377 7.08821 16.8008 7.97134 18.0254L8.17874 18.3184L7.28892 21.166L10.6274 20.3984L10.9486 20.5684C12.3 21.2715 13.8522 21.6465 15.4378 21.6465H15.4445C20.3018 21.6465 24.3628 18.1836 24.3628 13.9238C24.3628 11.8613 23.3459 9.92188 21.68 8.46289C20.0074 6.99805 17.7996 6.19531 15.4445 6.19531ZM20.6296 17.2344C20.4088 17.7793 19.3517 18.2715 18.8433 18.3359C18.0003 18.4473 17.3446 18.3887 15.6653 17.7559C13.0092 16.748 11.2697 14.4043 11.1359 14.252C11.0021 14.0996 10.0521 12.9922 10.0521 11.8496C10.0521 10.707 10.7345 10.1445 10.982 9.91016C11.2229 9.67578 11.5106 9.61719 11.6912 9.61719C11.8652 9.61719 12.0458 9.61719 12.1997 9.62305C12.3603 9.62891 12.581 9.57031 12.7951 10.0215C13.0159 10.4844 13.5445 11.627 13.6114 11.7441C13.6783 11.8613 13.7251 11.9961 13.6314 12.1484C13.123 13.0391 12.581 13.0039 12.8553 13.4141C13.879 14.9551 14.9026 15.4883 16.4615 16.1738C16.7291 16.291 16.883 16.2734 17.0368 16.1152C17.1907 15.9629 17.6992 15.4355 17.8731 15.207C18.0471 14.9727 18.2277 15.0137 18.4686 15.0898C18.7095 15.166 20.0141 15.7285 20.2817 15.8457C20.5493 15.9629 20.7233 16.0215 20.7902 16.1152C20.8504 16.2266 20.8504 16.6953 20.6296 17.2344ZM27.2197 0.875H3.66941C1.89645 0.875 0.458008 2.13477 0.458008 3.6875V24.3125C0.458008 25.8652 1.89645 27.125 3.66941 27.125H27.2197C28.9926 27.125 30.4311 25.8652 30.4311 24.3125V3.6875C30.4311 2.13477 28.9926 0.875 27.2197 0.875ZM15.4378 23.2109C13.6582 23.2109 11.912 22.8184 10.3665 22.0801L4.73987 23.375L6.24521 18.5586C5.31525 17.1523 4.82685 15.5527 4.82685 13.9121C4.83354 8.79102 9.59042 4.625 15.4378 4.625C18.2746 4.625 20.9374 5.5918 22.9445 7.34961C24.9449 9.10742 26.1492 11.4395 26.1492 13.9238C26.1492 19.0449 21.2853 23.2109 15.4378 23.2109Z" fill="#170962"/>
</svg>
